# xmcd CD database file
#
# Track frame offsets:
#	150
#	14970
#	35325
#	49715
#	69435
#	86825
#	101055
#	117007
#	135625
#	156232
#	171362
#	189635
#
# Disc length: 2758 seconds
#
# Revision: 7
# Processed by: cddbd v1.5.2PL0 Copyright (c) Steve Scherf et al.
# Submitted via: CDex 1.70beta3
#
DISCID=a70ac40c
DTITLE=ROAD OF MAJOR - ROAD OF MAJOR
DYEAR=2003
DGENRE=Rock
TTITLE0=僕らだけの歌
TTITLE1=雑走
TTITLE2=大切なもの
TTITLE3=足跡
TTITLE4=君がため
TTITLE5=F.L.D
TTITLE6=スコール
TTITLE7=レールの行方
TTITLE8=row,row,row
TTITLE9=夢追い人
TTITLE10=日付けのない日記
TTITLE11=春雨
EXTD=YEAR: 2003
EXTT0=
EXTT1=
EXTT2=
EXTT3=
EXTT4=
EXTT5=
EXTT6=
EXTT7=
EXTT8=
EXTT9=
EXTT10=
EXTT11=
PLAYORDER=
